{
    "asset" : {
        "generator" : "Khronos glTF Blender I/O v1.8.19",
        "version" : "2.0"
    },
    "scene" : 0,
    "scenes" : [
        {
            "name" : "Scene",
            "nodes" : [
                0,
                1
            ]
        }
    ],
    "nodes" : [
        {
            "mesh" : 0,
            "name" : "Shadow_Catcher",
            "scale" : [
                26.79301643371582,
                26.79301643371582,
                26.79301643371582
            ],
            "translation" : [
                -0.35097357630729675,
                -0.04431101679801941,
                -0.4712796211242676
            ]
        },
        {
            "mesh" : 1,
            "name" : "Cottage_Free"
        }
    ],
    "materials" : [
        {
            "doubleSided" : true,
            "name" : "Shadow_catcher",
            "pbrMetallicRoughness" : {
                "baseColorFactor" : [
                    0.800000011920929,
                    0.800000011920929,
                    0.800000011920929,
                    1
                ],
                "metallicFactor" : 0,
                "roughnessFactor" : 0.8642383813858032
            }
        },
        {
            "doubleSided" : true,
            "name" : "Cottage_FREE",
            "normalTexture" : {
                "index" : 0
            },
            "pbrMetallicRoughness" : {
                "baseColorTexture" : {
                    "index" : 1
                },
                "metallicRoughnessTexture" : {
                    "index" : 2
                }
            }
        }
    ],
    "meshes" : [
        {
            "name" : "Plane",
            "primitives" : [
                {
                    "attributes" : {
                        "POSITION" : 0,
                        "NORMAL" : 1,
                        "TEXCOORD_0" : 2
                    },
                    "indices" : 3,
                    "material" : 0
                }
            ]
        },
        {
            "name" : "Cottage_Free",
            "primitives" : [
                {
                    "attributes" : {
                        "POSITION" : 4,
                        "NORMAL" : 5,
                        "TEXCOORD_0" : 6
                    },
                    "indices" : 7,
                    "material" : 1
                }
            ]
        }
    ],
    "textures" : [
        {
            "sampler" : 0,
            "source" : 0
        },
        {
            "sampler" : 0,
            "source" : 1
        },
        {
            "sampler" : 0,
            "source" : 2
        }
    ],
    "images" : [
        {
            "mimeType" : "image/png",
            "name" : "Cottage_Clean_Normal",
            "uri" : "Cottage_Clean_Normal.png"
        },
        {
            "mimeType" : "image/png",
            "name" : "Cottage_Clean_Base_Color",
            "uri" : "Cottage_Clean_Base_Color.png"
        },
        {
            "mimeType" : "image/png",
            "name" : "Cottage_Clean_Metallic-Cottage_Clean_Roughness",
            "uri" : "Cottage_Clean_Metallic-Cottage_Clean_Roughness.png"
        }
    ],
    "accessors" : [
        {
            "bufferView" : 0,
            "componentType" : 5126,
            "count" : 4,
            "max" : [
                1,
                0,
                1
            ],
            "min" : [
                -1,
                0,
                -1
            ],
            "type" : "VEC3"
        },
        {
            "bufferView" : 1,
            "componentType" : 5126,
            "count" : 4,
            "type" : "VEC3"
        },
        {
            "bufferView" : 2,
            "componentType" : 5126,
            "count" : 4,
            "type" : "VEC2"
        },
        {
            "bufferView" : 3,
            "componentType" : 5123,
            "count" : 6,
            "type" : "SCALAR"
        },
        {
            "bufferView" : 4,
            "componentType" : 5126,
            "count" : 6652,
            "max" : [
                6.403256416320801,
                6.737067699432373,
                7.620824813842773
            ],
            "min" : [
                -6.034487724304199,
                -0.016011305153369904,
                -7.029338836669922
            ],
            "type" : "VEC3"
        },
        {
            "bufferView" : 5,
            "componentType" : 5126,
            "count" : 6652,
            "type" : "VEC3"
        },
        {
            "bufferView" : 6,
            "componentType" : 5126,
            "count" : 6652,
            "type" : "VEC2"
        },
        {
            "bufferView" : 7,
            "componentType" : 5123,
            "count" : 12843,
            "type" : "SCALAR"
        }
    ],
    "bufferViews" : [
        {
            "buffer" : 0,
            "byteLength" : 48,
            "byteOffset" : 0
        },
        {
            "buffer" : 0,
            "byteLength" : 48,
            "byteOffset" : 48
        },
        {
            "buffer" : 0,
            "byteLength" : 32,
            "byteOffset" : 96
        },
        {
            "buffer" : 0,
            "byteLength" : 12,
            "byteOffset" : 128
        },
        {
            "buffer" : 0,
            "byteLength" : 79824,
            "byteOffset" : 140
        },
        {
            "buffer" : 0,
            "byteLength" : 79824,
            "byteOffset" : 79964
        },
        {
            "buffer" : 0,
            "byteLength" : 53216,
            "byteOffset" : 159788
        },
        {
            "buffer" : 0,
            "byteLength" : 25686,
            "byteOffset" : 213004
        }
    ],
    "samplers" : [
        {
            "magFilter" : 9729,
            "minFilter" : 9987
        }
    ],
    "buffers" : [
        {
            "byteLength" : 238692,
            "uri" : "Cottage.bin"
        }
    ]
}
